<?xml version="1.0" encoding="UTF-8"?>
<svg width="512px" height="512px" viewBox="0 0 512 512" version="1.1" xmlns="http://www.w3.org/2000/svg" xmlns:xlink="http://www.w3.org/1999/xlink">
    <title>App icon White 512</title>
    <defs>
        <linearGradient x1="31.6789261%" y1="2.25514052e-15%" x2="72.7568981%" y2="100%" id="linearGradient-1">
            <stop stop-color="#FFFFFF" offset="0%"></stop>
            <stop stop-color="#F3F3F5" offset="100%"></stop>
        </linearGradient>
        <path d="M167.938719,55 L344.061281,55 C385.071143,55 399.94231,59.2699781 414.934902,67.2881044 C429.927495,75.3062306 441.693769,87.072505 449.711896,102.065098 C457.730022,117.05769 462,131.928857 462,172.938719 L462,349.061281 C462,390.071143 457.730022,404.94231 449.711896,419.934902 C441.693769,434.927495 429.927495,446.693769 414.934902,454.711896 C399.94231,462.730022 385.071143,467 344.061281,467 L167.938719,467 C126.928857,467 112.05769,462.730022 97.0650976,454.711896 C82.072505,446.693769 70.3062306,434.927495 62.2881044,419.934902 C54.2699781,404.94231 50,390.071143 50,349.061281 L50,172.938719 C50,131.928857 54.2699781,117.05769 62.2881044,102.065098 C70.3062306,87.072505 82.072505,75.3062306 97.0650976,67.2881044 C112.05769,59.2699781 126.928857,55 167.938719,55 Z" id="path-2"></path>
        <filter x="-2.4%" y="-1.2%" width="104.9%" height="104.9%" filterUnits="objectBoundingBox" id="filter-3">
            <feOffset dx="0" dy="5" in="SourceAlpha" result="shadowOffsetOuter1"></feOffset>
            <feGaussianBlur stdDeviation="2.5" in="shadowOffsetOuter1" result="shadowBlurOuter1"></feGaussianBlur>
            <feColorMatrix values="0 0 0 0 0   0 0 0 0 0   0 0 0 0 0  0 0 0 0.401824738 0" type="matrix" in="shadowBlurOuter1"></feColorMatrix>
        </filter>
        <filter x="-17.2%" y="-9.6%" width="134.3%" height="126.9%" filterUnits="objectBoundingBox" id="filter-4">
            <feOffset dx="0" dy="10" in="SourceAlpha" result="shadowOffsetOuter1"></feOffset>
            <feGaussianBlur stdDeviation="10" in="shadowOffsetOuter1" result="shadowBlurOuter1"></feGaussianBlur>
            <feColorMatrix values="0 0 0 0 0   0 0 0 0 0   0 0 0 0 0  0 0 0 0.250027316 0" type="matrix" in="shadowBlurOuter1" result="shadowMatrixOuter1"></feColorMatrix>
            <feMerge>
                <feMergeNode in="shadowMatrixOuter1"></feMergeNode>
                <feMergeNode in="SourceGraphic"></feMergeNode>
            </feMerge>
        </filter>
        <linearGradient x1="50%" y1="15.9622783%" x2="50%" y2="100%" id="linearGradient-5">
            <stop stop-color="#162431" offset="0.0737543706%"></stop>
            <stop stop-color="#000000" offset="100%"></stop>
        </linearGradient>
    </defs>
    <g id="Page-1" stroke="none" stroke-width="1" fill="none" fill-rule="evenodd">
        <g id="App-icon-White-512">
            <rect id="Rectangle" x="0" y="0" width="512" height="512"></rect>
            <g id="Rectangle">
                <use fill="black" fill-opacity="1" filter="url(#filter-3)" xlink:href="#path-2"></use>
                <use fill="url(#linearGradient-1)" fill-rule="evenodd" xlink:href="#path-2"></use>
            </g>
            <g id="Group-2" filter="url(#filter-4)" transform="translate(154, 126)">
                <path d="M168.105607,19.0018147 C180.58687,19.0018147 185.112877,20.3013733 189.67584,22.7416726 C194.238803,25.1819719 197.819843,28.7630119 200.260142,33.3259749 C202.700441,37.8889378 204,42.4149452 204,54.8962075 L204,224.105607 C204,236.202831 202.779184,240.826822 200.482156,245.254515 L200.260142,245.67584 C197.819843,250.238803 194.238803,253.819843 189.67584,256.260142 C185.112877,258.700441 180.58687,260 168.105607,260 L35.8943928,260 C23.4131304,260 18.8871231,258.700441 14.3241602,256.260142 C9.76119719,253.819843 6.18015715,250.238803 3.73985785,245.67584 L3.51784406,245.254515 C1.25727683,240.897103 0.0390272202,236.349575 0.000922185164,224.676046 L9.66784287e-16,54.8962075 C-5.61729512e-16,42.4149452 1.29955856,37.8889378 3.73985785,33.3259749 C6.18015715,28.7630119 9.76119719,25.1819719 14.3241602,22.7416726 C18.8871231,20.3013733 23.4131304,19.0018147 35.8943928,19.0018147 L37.9214955,19.0013354 C37.8524272,20.3522824 37.8175439,21.8098248 37.8175439,23.3925704 L37.8175439,32.1028628 C37.8175439,41.7633682 39.1171024,46.7595017 41.5574017,51.3224646 C43.997701,55.8854276 47.578741,59.4664676 52.141704,61.9067669 C56.704667,64.3470662 61.7008005,65.6466248 71.3613059,65.6466248 L133.473782,65.6466248 C143.134287,65.6466248 148.130421,64.3470662 152.693384,61.9067669 C157.256347,59.4664676 160.837387,55.8854276 163.277686,51.3224646 C165.717985,46.7595017 167.017544,41.7633682 167.017544,32.1028628 L167.017544,23.3925704 C167.017544,21.8098248 166.98266,20.3522824 166.913592,19.0013354 L168.105607,19.0018147 Z" id="Combined-Shape" fill="url(#linearGradient-5)"></path>
                <path d="M70.7930242,-5.86976174e-16 L134.206976,8.80464262e-16 C141.784885,-5.11575091e-16 144.532818,0.789017695 147.303188,2.27062798 C150.073559,3.75223827 152.247762,5.92644115 153.729372,8.69681152 C155.210982,11.4671819 156,14.2151149 156,21.7930242 L156,33.2069758 C156,40.7848851 155.210982,43.5328181 153.729372,46.3031885 C152.247762,49.0735589 150.073559,51.2477617 147.303188,52.729372 C144.532818,54.2109823 141.784885,55 134.206976,55 L70.7930242,55 C63.2151149,55 60.4671819,54.2109823 57.6968115,52.729372 C54.9264411,51.2477617 52.7522383,49.0735589 51.270628,46.3031885 C49.7890177,43.5328181 49,40.7848851 49,33.2069758 L49,21.7930242 C49,14.2151149 49.7890177,11.4671819 51.270628,8.69681152 C52.7522383,5.92644115 54.9264411,3.75223827 57.6968115,2.27062798 C60.4671819,0.789017695 63.2151149,3.41050061e-16 70.7930242,-5.86976174e-16 Z" id="Rectangle" fill="#162431"></path>
            </g>
        </g>
    </g>
</svg>