<svg xmlns="http://www.w3.org/2000/svg" viewBox="0 0 260 260">
  <defs>
    <linearGradient id="linear-gradient" x1="239.68" y1="239.68" x2="11.96" y2="11.96" gradientUnits="userSpaceOnUse">
      <stop offset="0" stop-color="#798aff"/>
      <stop offset="1" stop-color="#20bff6"/>
    </linearGradient>
  </defs>
  <g id="logomark">
    <g>
      <path d="M17.06,193.81a21,21,0,0,1-2.24-7.46l-.05-1.21V74.86c0-6,4-13.29,9.08-16.76l.9-.57L120,2.38c5.15-3,13.36-3.16,18.89-.56l1.07.56,95.27,55.15a19.76,19.76,0,0,1,6.34,6.31L242.3,65a21.49,21.49,0,0,1,2.88,8.65l0,1.21V185.14a19.8,19.8,0,0,1-2.29,8.67L242.3,195l-.71,1.16a20.66,20.66,0,0,1-5.32,5.66l-1,.65L140,257.62c-5.15,3-13.36,3.16-18.89.56l-1.07-.56L24.75,202.47a19.76,19.76,0,0,1-6.34-6.31L17.7,195Z" style="fill: url(#linear-gradient)"/>
      <g>
        <path d="M199,116.43H156.26a4.7,4.7,0,0,0-4.65,4.76v42.48a4.7,4.7,0,0,0,4.65,4.76H199a4.7,4.7,0,0,0,4.64-4.76V121.19A4.7,4.7,0,0,0,199,116.43Zm-9.36,38.25c0,1.52-1,2.75-2.14,2.75H167.76a2.5,2.5,0,0,1-2.15-2.75v-24.5a2.5,2.5,0,0,1,2.15-2.75h19.71c1.18,0,2.14,1.23,2.14,2.75Z" style="fill: #fff"/>
        <rect x="152.61" y="95.45" width="50" height="12" style="fill: #fff"/>
        <path d="M52.93,94.42h25.3l18.24,52.9,18-52.9h23.82v74H122.24V113.69h-.34l-18.7,54.72H89L69.68,113.69h-.45v54.72H52.93Z" style="fill: #fff"/>
      </g>
    </g>
  </g>
</svg>
