<?xml version="1.0" encoding="UTF-8"?>
<svg width="80px" height="60px" viewBox="0 0 80 60" version="1.1" xmlns="http://www.w3.org/2000/svg" xmlns:xlink="http://www.w3.org/1999/xlink">
    <title>Group</title>
    <defs>
        <filter x="-11.4%" y="-14.0%" width="122.9%" height="132.0%" filterUnits="objectBoundingBox" id="filter-1">
            <feOffset dx="0" dy="1" in="SourceAlpha" result="shadowOffsetOuter1"></feOffset>
            <feGaussianBlur stdDeviation="2.5" in="shadowOffsetOuter1" result="shadowBlurOuter1"></feGaussianBlur>
            <feColorMatrix values="0 0 0 0 0   0 0 0 0 0   0 0 0 0 0  0 0 0 0.280785621 0" type="matrix" in="shadowBlurOuter1" result="shadowMatrixOuter1"></feColorMatrix>
            <feMerge>
                <feMergeNode in="shadowMatrixOuter1"></feMergeNode>
                <feMergeNode in="SourceGraphic"></feMergeNode>
            </feMerge>
        </filter>
        <polygon id="path-2" points="45.680984 0 24 50 70 50 70 0"></polygon>
        <filter x="-11.4%" y="-14.0%" width="122.9%" height="132.0%" filterUnits="objectBoundingBox" id="filter-4">
            <feOffset dx="0" dy="1" in="SourceAlpha" result="shadowOffsetOuter1"></feOffset>
            <feGaussianBlur stdDeviation="2.5" in="shadowOffsetOuter1" result="shadowBlurOuter1"></feGaussianBlur>
            <feColorMatrix values="0 0 0 0 0   0 0 0 0 0   0 0 0 0 0  0 0 0 0.280785621 0" type="matrix" in="shadowBlurOuter1" result="shadowMatrixOuter1"></feColorMatrix>
            <feMerge>
                <feMergeNode in="shadowMatrixOuter1"></feMergeNode>
                <feMergeNode in="SourceGraphic"></feMergeNode>
            </feMerge>
        </filter>
    </defs>
    <g id="Page-1" stroke="none" stroke-width="1" fill="none" fill-rule="evenodd">
        <g id="Group" transform="translate(5, 4)">
            <g id="Light" filter="url(#filter-1)">
                <rect id="Rectangle" fill="#FAFAFA" x="0" y="0" width="70" height="50" rx="5"></rect>
                <path d="M35,0 L65,0 C67.7614237,-2.95990229e-15 70,2.23857625 70,5 L70,45 C70,47.7614237 67.7614237,50 65,50 L35,50 L35,50 L35,0 Z" id="Rectangle" fill="#EEEEEE"></path>
                <rect id="Rectangle" fill="#D7D7D7" x="8" y="8" width="22" height="2" rx="1"></rect>
                <rect id="Rectangle" fill="#D7D7D7" x="8" y="12" width="24" height="2" rx="1"></rect>
                <rect id="Rectangle" fill="#D7D7D7" x="8" y="16" width="16" height="2" rx="1"></rect>
                <rect id="Rectangle" fill="#D7D7D7" x="8" y="20" width="20" height="2" rx="1"></rect>
                <rect id="Rectangle" fill="#D7D7D7" x="8" y="24" width="24" height="2" rx="1"></rect>
                <rect id="Rectangle" fill="#D7D7D7" x="8" y="28" width="16" height="2" rx="1"></rect>
                <rect id="Rectangle" fill="#D7D7D7" x="8" y="32" width="24" height="2" rx="1"></rect>
                <rect id="Rectangle" fill="#D7D7D7" x="8" y="36" width="10" height="2" rx="1"></rect>
                <rect id="Rectangle" fill="#D7D7D7" x="8" y="40" width="20" height="2" rx="1"></rect>
                <rect id="Rectangle" fill="#E3E3E3" x="4" y="8" width="2" height="2" rx="1"></rect>
                <rect id="Rectangle" fill="#E3E3E3" x="4" y="12" width="2" height="2" rx="1"></rect>
                <rect id="Rectangle" fill="#E3E3E3" x="4" y="16" width="2" height="2" rx="1"></rect>
                <rect id="Rectangle" fill="#E3E3E3" x="4" y="20" width="2" height="2" rx="1"></rect>
                <rect id="Rectangle" fill="#E3E3E3" x="4" y="24" width="2" height="2" rx="1"></rect>
                <rect id="Rectangle" fill="#E3E3E3" x="4" y="28" width="2" height="2" rx="1"></rect>
                <rect id="Rectangle" fill="#E3E3E3" x="4" y="32" width="2" height="2" rx="1"></rect>
                <rect id="Rectangle" fill="#E3E3E3" x="4" y="36" width="2" height="2" rx="1"></rect>
                <rect id="Rectangle" fill="#E3E3E3" x="4" y="40" width="2" height="2" rx="1"></rect>
                <rect id="Rectangle" fill="#D7D7D7" x="38" y="8" width="28" height="1" rx="0.5"></rect>
                <rect id="Rectangle" fill="#D7D7D7" x="38" y="11" width="28" height="1" rx="0.5"></rect>
                <rect id="Rectangle" fill="#D7D7D7" x="38" y="14" width="28" height="1" rx="0.5"></rect>
                <rect id="Rectangle" fill="#D7D7D7" x="38" y="17" width="28" height="1" rx="0.5"></rect>
                <rect id="Rectangle" fill="#D7D7D7" x="38" y="20" width="28" height="1" rx="0.5"></rect>
                <rect id="Rectangle" fill="#D7D7D7" x="38" y="23" width="28" height="1" rx="0.5"></rect>
            </g>
            <mask id="mask-3" fill="white">
                <use xlink:href="#path-2"></use>
            </mask>
            <g id="Path"></g>
            <g id="Dark" filter="url(#filter-4)" mask="url(#mask-3)">
                <rect id="Rectangle" fill="#2C2D30" x="0" y="0" width="70" height="50" rx="5"></rect>
                <path d="M35,0 L65,0 C67.7614237,-2.95990229e-15 70,2.23857625 70,5 L70,45 C70,47.7614237 67.7614237,50 65,50 L35,50 L35,50 L35,0 Z" id="Rectangle" fill="#535353"></path>
                <rect id="Rectangle" fill="#8A8A8A" x="8" y="8" width="22" height="2" rx="1"></rect>
                <rect id="Rectangle" fill="#8A8A8A" x="8" y="12" width="24" height="2" rx="1"></rect>
                <rect id="Rectangle" fill="#8A8A8A" x="8" y="16" width="16" height="2" rx="1"></rect>
                <rect id="Rectangle" fill="#8A8A8A" x="8" y="20" width="20" height="2" rx="1"></rect>
                <rect id="Rectangle" fill="#8A8A8A" x="8" y="24" width="24" height="2" rx="1"></rect>
                <rect id="Rectangle" fill="#8A8A8A" x="8" y="28" width="16" height="2" rx="1"></rect>
                <rect id="Rectangle" fill="#8A8A8A" x="8" y="32" width="24" height="2" rx="1"></rect>
                <rect id="Rectangle" fill="#8A8A8A" x="8" y="36" width="10" height="2" rx="1"></rect>
                <rect id="Rectangle" fill="#8A8A8A" x="8" y="40" width="20" height="2" rx="1"></rect>
                <rect id="Rectangle" fill="#868686" x="4" y="8" width="2" height="2" rx="1"></rect>
                <rect id="Rectangle" fill="#868686" x="4" y="12" width="2" height="2" rx="1"></rect>
                <rect id="Rectangle" fill="#868686" x="4" y="16" width="2" height="2" rx="1"></rect>
                <rect id="Rectangle" fill="#868686" x="4" y="20" width="2" height="2" rx="1"></rect>
                <rect id="Rectangle" fill="#868686" x="4" y="24" width="2" height="2" rx="1"></rect>
                <rect id="Rectangle" fill="#868686" x="4" y="28" width="2" height="2" rx="1"></rect>
                <rect id="Rectangle" fill="#868686" x="4" y="32" width="2" height="2" rx="1"></rect>
                <rect id="Rectangle" fill="#868686" x="4" y="36" width="2" height="2" rx="1"></rect>
                <rect id="Rectangle" fill="#868686" x="4" y="40" width="2" height="2" rx="1"></rect>
                <rect id="Rectangle" fill="#8A8A8A" x="38" y="8" width="28" height="1" rx="0.5"></rect>
                <rect id="Rectangle" fill="#8A8A8A" x="38" y="11" width="28" height="1" rx="0.5"></rect>
                <rect id="Rectangle" fill="#8A8A8A" x="38" y="14" width="28" height="1" rx="0.5"></rect>
                <rect id="Rectangle" fill="#8A8A8A" x="38" y="17" width="28" height="1" rx="0.5"></rect>
                <rect id="Rectangle" fill="#8A8A8A" x="38" y="20" width="28" height="1" rx="0.5"></rect>
                <rect id="Rectangle" fill="#8A8A8A" x="38" y="23" width="28" height="1" rx="0.5"></rect>
            </g>
        </g>
    </g>
</svg>